<?xml version="1.0" encoding="UTF-8"?>
<svg xmlns="http://www.w3.org/2000/svg" xmlns:xlink="http://www.w3.org/1999/xlink" width="50pt" height="50pt" viewBox="0 0 50 50" version="1.1">
<g id="surface9317634">
<path style=" stroke:none;fill-rule:nonzero;fill:rgb(100%,100%,100%);fill-opacity:1;" d="M 1 9 C 0.449219 9 0 9.449219 0 10 L 0 24.113281 C 0 30.277344 4.683594 35.632812 10.832031 35.980469 C 16.730469 36.316406 21.746094 32.175781 22.796875 26.648438 C 23.367188 27.421875 23.945312 28.136719 24.53125 28.792969 L 21.003906 43.769531 C 20.933594 44.070312 21.003906 44.378906 21.191406 44.621094 C 21.382812 44.859375 21.671875 45 21.976562 45 L 27.097656 45 C 27.558594 45 27.960938 44.6875 28.066406 44.238281 C 28.6875 41.617188 29.660156 37.507812 30.542969 33.785156 L 31.453125 34.3125 C 33.617188 35.433594 35.816406 36 38 36 C 45.191406 36 50.925781 29.640625 49.875 22.25 C 49.179688 17.355469 45.414062 13.316406 40.582031 12.277344 C 34.949219 11.0625 29.523438 13.949219 27.195312 18.742188 C 27.195312 18.742188 26.933594 19.320312 26.726562 19.890625 C 25.078125 17.046875 24.109375 14.09375 23.601562 11.953125 C 23.414062 11.175781 23.136719 9.761719 23.105469 9.671875 C 22.964844 9.269531 22.589844 9 22.164062 9 L 17 9 C 16.449219 9 16 9.449219 16 10 L 16 24.300781 C 16 26.648438 14.289062 28.75 11.949219 28.976562 C 9.265625 29.242188 7 27.128906 7 24.5 L 7 10 C 7 9.449219 6.550781 9 6 9 Z M 38 19 C 40.757812 19 43 21.242188 43 24 C 43 26.757812 40.757812 29 38 29 C 35.773438 29 33.714844 27.660156 32.269531 26.488281 C 32.796875 24.261719 33.148438 22.773438 33.15625 22.75 C 33.722656 20.542969 35.71875 19 38 19 Z M 38 19 "/>
</g>
</svg>
